[img]http://img829.imageshack.us/img829/6705/hugon.jpg[/img]
[code]
Hugo 2011 CaM 720p XviD - ILLUMINATI

iMDB 
http://www.imdb.com/title/tt0970179/

plot
Set in 1930s Paris, an orphan who lives 
in the walls of a train station is wrapped 
up in a mystery involving his late father 
and an automaton.

source
Thanks

Video

info
ID                               : 0
Format                           : MPEG-4 Visual
Format profile                   : Advanced Simple@L5
Format settings, BVOP            : 2
Format settings, QPel            : No
Format settings, GMC             : No warppoints
Format settings, Matrix          : Default (H.263)
Codec ID                         : XVID
Codec ID/Hint                    : XviD
Duration                         : 2h 0mn
Bit rate                         : 2 747 Kbps
Width                            : 1 280 pixels
Height                           : 608 pixels
Display aspect ratio             : 2.2:1
Frame rate                       : 24.000 fps
Color space                      : YUV
Chroma subsampling               : 4:2:0
Bit depth                        : 8 bits
Scan type                        : Progressive
Compression mode                 : Lossy
Bits/(Pixel*Frame)               : 0.147
Stream size                      : 2.32 GiB (95%)

Audio
ID                               : 1
Format                           : MPEG Audio
Format version                   : Version 1
Format profile                   : Layer 3
Codec ID                         : 55
Codec ID/Hint                    : MP3
Duration                         : 2h 0mn
Bit rate mode                    : Constant
Bit rate                         : 128 Kbps
Channel(s)                       : 2 channels
Sampling rate                    : 44.1 KHz
Compression mode                 : Lossy
Stream size                      : 111 MiB (4%)
Alignment                        : Aligned on interleaves
Interleave, duration             : 42 ms (1.00 video frame)
Writing library                  : LAME3.98.4
[/code]
Screens:
[img]http://img827.imageshack.us/img827/707/80612569.png[/img]
[img]http://img4.imageshack.us/img4/254/12156298.jpg[/img]
[img]http://img830.imageshack.us/img830/88/18146754.png[/img]
[img]http://img4.imageshack.us/img4/9959/57555416.png[/img]
[img]http://img831.imageshack.us/img831/6913/87154811.jpg[/img]